<svg width="1920" height="491" xmlns="http://www.w3.org/2000/svg">
 <g>
  <title>Layer 1</title>
  <path fill="#1d5297" opacity="NaN" d="m-24.45194,458.28578c428.53628,11.78219 483.97193,42.10368 1112.19559,30.02344c628.22366,-12.08024 747.76978,-28.67176 909.1215,-21.20795c161.35172,7.46381 81.54334,-501.92146 79.80838,-501.92146c1.73496,0 -2116.65693,-141.38633 -2116.65693,-139.02989c0,-2.35644 -413.00482,620.35366 15.53146,632.13585l0,0.00001z" id="svg_4" stroke="null"/>
  <path fill="#0099ff" stroke="null" opacity="NaN" d="m153.75,213.75l-12.5,71.25l12.5,-71.25z" id="svg_5"/>
  <path fill="#0099ff" stroke="null" d="m975.10767,617.93566l0.56913,0l0.17587,-0.54067l0.17587,0.54067l0.56913,0l-0.46044,0.33415l0.17588,0.54067l-0.46044,-0.33416l-0.46044,0.33416l0.17588,-0.54067l-0.46044,-0.33415z" id="svg_7"/>
 </g>

</svg>